<svg id="Vrstva_1" data-name="Vrstva 1" xmlns="http://www.w3.org/2000/svg" viewBox="0 0 85.03937 56.69287"><defs><style>.cls-1{fill:#25305d;}.cls-2{fill:#fff;}.cls-3{fill:#c91432;}</style></defs><title>gb</title><polygon class="cls-1" points="0 38.973 0 42.479 7.011 38.973 0 38.973"/><polygon class="cls-1" points="53.146 40.79 53.146 56.693 84.949 56.693 53.146 40.79"/><polygon class="cls-1" points="0 14.214 0 17.72 7.011 17.72 0 14.214"/><polygon class="cls-1" points="85.039 42.479 85.039 38.973 78.029 38.973 85.039 42.479"/><polygon class="cls-1" points="85.039 17.72 85.039 14.214 78.029 17.72 85.039 17.72"/><polygon class="cls-1" points="31.893 15.903 31.893 0 0.091 0 31.893 15.903"/><polygon class="cls-1" points="84.949 0 53.146 0 53.146 15.903 84.949 0"/><polygon class="cls-1" points="0.091 56.693 31.893 56.693 31.893 40.79 0.091 56.693"/><line class="cls-2" x1="84.94867" x2="85.03937"/><polygon class="cls-2" points="53.146 15.903 53.146 17.72 54.28 17.72 85.039 2.336 85.039 0 84.949 0 53.146 15.903"/><line class="cls-2" x1="0.0907" y1="56.69287" y2="56.69287"/><polygon class="cls-2" points="31.893 40.79 31.893 38.973 30.772 38.973 0 54.359 0 56.693 0.091 56.693 31.893 40.79"/><polygon class="cls-2" points="73.291 38.973 85.039 44.847 85.039 42.479 78.029 38.973 73.291 38.973"/><polygon class="cls-2" points="78.029 17.72 85.039 14.214 85.039 7.09 63.786 17.72 78.029 17.72"/><polygon class="cls-2" points="7.011 38.973 0 42.479 0 49.603 21.254 38.973 7.011 38.973"/><polygon class="cls-2" points="11.748 17.72 0 11.846 0 14.214 7.011 17.72 11.748 17.72"/><line class="cls-2" x2="0.0907"/><polygon class="cls-2" points="31.893 17.72 31.893 15.903 0.091 0 0 0 0 7.09 21.254 17.72 31.893 17.72"/><line class="cls-2" x1="85.03937" y1="56.69287" x2="84.94867" y2="56.69287"/><polygon class="cls-2" points="53.146 38.973 53.146 40.79 84.949 56.693 85.039 56.693 85.039 49.603 63.786 38.973 53.146 38.973"/><polygon class="cls-2" points="21.254 38.973 30.772 38.973 31.893 38.973 31.893 40.79 31.893 56.693 36.141 56.693 36.141 34.725 0 34.725 0 38.973 7.011 38.973 21.254 38.973"/><polygon class="cls-2" points="63.786 17.72 54.28 17.72 53.146 17.72 53.146 15.903 53.146 0 48.898 0 48.898 21.968 85.039 21.968 85.039 17.72 78.029 17.72 63.786 17.72"/><polygon class="cls-2" points="48.898 56.693 53.146 56.693 53.146 40.79 53.146 38.973 63.786 38.973 73.291 38.973 78.029 38.973 85.039 38.973 85.039 34.725 48.898 34.725 48.898 56.693"/><polygon class="cls-2" points="36.141 0 31.893 0 31.893 15.903 31.893 17.72 21.254 17.72 11.748 17.72 7.011 17.72 0 17.72 0 21.968 36.141 21.968 36.141 0"/><polygon class="cls-3" points="63.786 38.973 85.039 49.603 85.039 44.847 73.291 38.973 63.786 38.973"/><polygon class="cls-3" points="21.254 17.72 0 7.09 0 11.846 11.748 17.72 21.254 17.72"/><polygon class="cls-3" points="63.786 17.72 85.039 7.09 85.039 2.336 54.28 17.72 63.786 17.72"/><polygon class="cls-3" points="21.254 38.973 0 49.603 0 54.359 30.772 38.973 21.254 38.973"/><polygon class="cls-3" points="48.898 0 36.141 0 36.141 21.968 0 21.968 0 34.725 36.141 34.725 36.141 56.693 48.898 56.693 48.898 34.725 85.039 34.725 85.039 21.968 48.898 21.968 48.898 0"/></svg>