<svg class="svgicon svgicon--circle-close" viewBox="0 0 20 20">
    <path class="svgicon__path" d="M10,0.3c-5.4,0-9.8,4.4-9.8,9.8s4.4,9.8,9.8,9.8c5.4,0,9.8-4.4,9.8-9.8S15.4,0.3,10,0.3z M14.243,12.828
	c0.391,0.391,0.391,1.023,0,1.414s-1.023,0.391-1.414,0L10,11.414l-2.829,2.828c-0.391,0.391-1.023,0.391-1.414,0
	s-0.391-1.023,0-1.414L8.586,10L5.757,7.171c-0.391-0.391-0.391-1.023,0-1.414s1.023-0.391,1.414,0L10,8.586l2.829-2.829
	c0.391-0.391,1.023-0.391,1.414,0s0.391,1.023,0,1.414L11.414,10L14.243,12.828z"/>
</svg>
