<?xml version="1.0" encoding="utf-8"?>
<!-- Generator: Adobe Illustrator 23.1.0, SVG Export Plug-In . SVG Version: 6.00 Build 0)  -->
<svg version="1.1" id="Vrstva_1" xmlns="http://www.w3.org/2000/svg" xmlns:xlink="http://www.w3.org/1999/xlink" x="0px" y="0px"
	 viewBox="0 0 32 32" style="enable-background:new 0 0 32 32;" xml:space="preserve">
<style type="text/css">
	.st0{fill:#22528E;}
</style>
<g>
	<path class="st0" d="M16,14.7c-0.6,0-1-0.4-1-1V3.1c0-0.6,0.4-1,1-1s1,0.4,1,1v10.6C17,14.2,16.6,14.7,16,14.7z"/>
	<path class="st0" d="M24.2,29.9H7.8C5.2,29.9,3,27.7,3,25V9.8c0-2.7,2.1-4.9,4.8-4.9h3.6v2H7.8C6.2,6.9,5,8.2,5,9.8v15.1
		c0,1.6,1.2,2.9,2.8,2.9h16.4c1.5,0,2.8-1.3,2.8-2.9V9.8c0-1.6-1.2-2.9-2.8-2.9h-3.6v-2h3.6c2.6,0,4.8,2.2,4.8,4.9v15.1
		C29,27.7,26.9,29.9,24.2,29.9z"/>
</g>
</svg>
