<?xml version="1.0" encoding="utf-8"?>
<!-- Generated by IcoMoon.io -->
<!DOCTYPE svg PUBLIC "-//W3C//DTD SVG 1.1//EN" "http://www.w3.org/Graphics/SVG/1.1/DTD/svg11.dtd">
<svg class="svgicon" viewBox="0 0 20 20">
    <path class="svgicon__path" d="M9.983,5.545c1.459,0,2.646-1.188,2.646-2.647S11.442,0.25,9.983,0.25c-1.46,0-2.648,1.188-2.648,2.647 S8.523,5.545,9.983,5.545z M9.983,1.25c0.907,0,1.646,0.739,1.646,1.647s-0.738,1.647-1.646,1.647 c-0.909,0-1.648-0.739-1.648-1.647S9.075,1.25,9.983,1.25z"/>
    <path class="svgicon__path" d="M14.074,6.844l-0.82-0.937c-0.095-0.108-0.231-0.17-0.376-0.17h-2.861H9.983H7.122 c-0.144,0-0.281,0.062-0.376,0.17L5.925,6.844c-0.08,0.091-0.124,0.208-0.124,0.33l0,5.993c0,0.206,0.126,0.391,0.317,0.466 l1.338,0.524v5.093c0,0.134,0.053,0.262,0.148,0.355c0.094,0.093,0.22,0.145,0.352,0.145c0.002,0,0.004,0,0.006,0L10,19.727 l2.038,0.023c0.002,0,0.004,0,0.006,0c0.132,0,0.258-0.052,0.352-0.145c0.095-0.094,0.148-0.222,0.148-0.355v-5.093l1.337-0.524 c0.191-0.075,0.317-0.26,0.317-0.466V7.174C14.198,7.053,14.154,6.936,14.074,6.844z M13.198,12.826l-0.654,0.257v-3.046 c0-0.276-0.224-0.5-0.5-0.5s-0.5,0.224-0.5,0.5v8.707l-1.027-0.012v-4.535c0-0.276-0.224-0.5-0.5-0.5 c-0.006,0-0.011,0.003-0.017,0.004c-0.006-0.001-0.011-0.004-0.017-0.004c-0.276,0-0.5,0.224-0.5,0.5v4.535l-1.027,0.012v-8.707 c0-0.276-0.224-0.5-0.5-0.5s-0.5,0.224-0.5,0.5v3.046l-0.655-0.257l0-5.464l0.547-0.625h2.634h0.034h2.634l0.547,0.625V12.826z"/>
</svg>
