<?xml version="1.0" encoding="utf-8"?>
<!-- Generated by IcoMoon.io -->
<!DOCTYPE svg PUBLIC "-//W3C//DTD SVG 1.1//EN" "http://www.w3.org/Graphics/SVG/1.1/DTD/svg11.dtd">
<svg version="1.1" xmlns="http://www.w3.org/2000/svg" xmlns:xlink="http://www.w3.org/1999/xlink" width="20" height="20" viewBox="0 0 20 20">
<path fill="#2C2A85" d="M16.3,0.3H3.8c-0.3,0-0.5,0.2-0.5,0.5v18.5c0,0.3,0.2,0.5,0.5,0.5h4.6h3.4h4.5c0.3,0,0.5-0.2,0.5-0.5V0.8 C16.8,0.5,16.5,0.3,16.3,0.3z M8.9,18.8v-5.1h2.4v5.1H8.9z M15.8,18.8h-3.5v-5.6c0-0.3-0.2-0.5-0.5-0.5H8.4c-0.3,0-0.5,0.2-0.5,0.5 v5.6H4.3V1.3h11.5V18.8z"></path>
<path fill="#2C2A85" d="M6.2,4.5h0.6C6.9,4.5,7,4.4,7,4.3V3.7c0-0.1-0.1-0.2-0.2-0.2H6.2C6.1,3.5,6,3.6,6,3.7v0.6 C6,4.4,6.1,4.5,6.2,4.5z"></path>
<path fill="#2C2A85" d="M13.2,4.5h0.6c0.1,0,0.2-0.1,0.2-0.2V3.7c0-0.1-0.1-0.2-0.2-0.2h-0.6c-0.1,0-0.2,0.1-0.2,0.2v0.6 C13,4.4,13.1,4.5,13.2,4.5z"></path>
<path fill="#2C2A85" d="M9.7,4.5h0.6c0.1,0,0.2-0.1,0.2-0.2V3.7c0-0.1-0.1-0.2-0.2-0.2H9.7c-0.1,0-0.2,0.1-0.2,0.2v0.6 C9.5,4.4,9.6,4.5,9.7,4.5z"></path>
<path fill="#2C2A85" d="M6.2,7.5h0.6C6.9,7.5,7,7.4,7,7.3V6.7c0-0.1-0.1-0.2-0.2-0.2H6.2C6.1,6.5,6,6.6,6,6.7v0.6 C6,7.4,6.1,7.5,6.2,7.5z"></path>
<path fill="#2C2A85" d="M13.2,7.5h0.6c0.1,0,0.2-0.1,0.2-0.2V6.7c0-0.1-0.1-0.2-0.2-0.2h-0.6c-0.1,0-0.2,0.1-0.2,0.2v0.6 C13,7.4,13.1,7.5,13.2,7.5z"></path>
<path fill="#2C2A85" d="M9.7,7.5h0.6c0.1,0,0.2-0.1,0.2-0.2V6.7c0-0.1-0.1-0.2-0.2-0.2H9.7c-0.1,0-0.2,0.1-0.2,0.2v0.6 C9.5,7.4,9.6,7.5,9.7,7.5z"></path>
<path fill="#2C2A85" d="M6.2,10.5h0.6c0.1,0,0.2-0.1,0.2-0.2V9.7c0-0.1-0.1-0.2-0.2-0.2H6.2C6.1,9.5,6,9.6,6,9.7v0.6 C6,10.4,6.1,10.5,6.2,10.5z"></path>
<path fill="#2C2A85" d="M13.2,10.5h0.6c0.1,0,0.2-0.1,0.2-0.2V9.7c0-0.1-0.1-0.2-0.2-0.2h-0.6c-0.1,0-0.2,0.1-0.2,0.2v0.6 C13,10.4,13.1,10.5,13.2,10.5z"></path>
<path fill="#2C2A85" d="M9.7,10.5h0.6c0.1,0,0.2-0.1,0.2-0.2V9.7c0-0.1-0.1-0.2-0.2-0.2H9.7c-0.1,0-0.2,0.1-0.2,0.2v0.6 C9.5,10.4,9.6,10.5,9.7,10.5z"></path>
</svg>
