<svg height="20" viewBox="0 0 20 20" width="20" xmlns="http://www.w3.org/2000/svg"><path d="m18.9 5.1c-1.8-3.2-5-5-8.6-5-2.6 0-5.1 1-7 2.9s-2.9 4.4-2.9 7 1 5.1 2.9 7c1.9 1.9 4.4 2.9 7 2.9 1.5 0 2.9-.3 4.1-.9l-.4-.9c-1.2.5-2.4.8-3.8.8-4.9 0-8.9-4-8.9-8.9s4-8.9 8.9-8.9c3.2 0 6.1 1.7 7.7 4.5.5.9.8 2.3.8 3.2-.2 3.5-2.9 4.5-4.7 4.6-1.4 0-1.4-.9-.9-3.2l1-4.8c-.7-.3-1.7-.6-2.9-.6-3.7 0-6.4 3-6.4 6.3 0 2.1 1.3 3.4 2.9 3.4s3.1-1 4.1-2.3c-.2 1.5.8 2.2 1.9 2.2 2.9-.1 5.7-1.5 6-5.5.1-1.2-.2-2.7-.8-3.8zm-6.7 4.4c-.5 2-2.6 3.9-4.2 3.9-1.2 0-2-.9-2-2.4 0-2.8 2.6-5.1 5-5.1.6 0 1.7.1 2 .2z" fill="#2c2a85"/></svg>