<?xml version="1.0" encoding="utf-8"?>
<!-- Generated by IcoMoon.io -->
<!DOCTYPE svg PUBLIC "-//W3C//DTD SVG 1.1//EN" "http://www.w3.org/Graphics/SVG/1.1/DTD/svg11.dtd">
<svg version="1.1" xmlns="http://www.w3.org/2000/svg" xmlns:xlink="http://www.w3.org/1999/xlink" width="32" height="32" viewBox="0 0 32 32">
<path fill="#1C8B72" d="M16,14.2c-0.6,0-1-0.4-1-1V2.6c0-0.6,0.4-1,1-1s1,0.4,1,1v10.6C17,13.7,16.6,14.2,16,14.2z"></path>
<path fill="#1C8B72" d="M24.2,29.4H7.8c-2.6,0-4.8-2.2-4.8-4.9V9.3c0-2.7,2.1-4.9,4.8-4.9h3.6v2H7.8C6.2,6.4,5,7.7,5,9.3v15.1	c0,1.6,1.2,2.9,2.8,2.9h16.4c1.5,0,2.8-1.3,2.8-2.9V9.3c0-1.6-1.2-2.9-2.8-2.9h-3.6v-2h3.6c2.6,0,4.8,2.2,4.8,4.9v15.1	C29,27.2,26.9,29.4,24.2,29.4z"></path>
</svg>
