<?xml version="1.0" encoding="utf-8"?>
<!-- Generated by IcoMoon.io -->
<!DOCTYPE svg PUBLIC "-//W3C//DTD SVG 1.1//EN" "http://www.w3.org/Graphics/SVG/1.1/DTD/svg11.dtd">
<svg version="1.1" xmlns="http://www.w3.org/2000/svg" xmlns:xlink="http://www.w3.org/1999/xlink" width="20" height="20" viewBox="0 0 20 20">
<path fill="#2C2A85" d="M19.3,5.3H0.8c-0.3,0-0.5,0.2-0.5,0.5v8.4c0,0.3,0.2,0.5,0.5,0.5h18.5c0.3,0,0.5-0.2,0.5-0.5V5.8 C19.8,5.5,19.5,5.3,19.3,5.3z M18.8,7.2C18.3,7,18,6.7,17.9,6.3h0.9V7.2z M16.8,13.7H3.2c-0.2-1-1-1.7-1.9-1.9V8.2 c1-0.2,1.7-1,1.9-1.9h13.6c0.2,1,1,1.7,1.9,1.9v3.5C17.8,12,17,12.7,16.8,13.7z M2.1,6.3C2,6.7,1.7,7,1.3,7.2V6.3H2.1z M1.3,12.8 C1.7,13,2,13.3,2.1,13.7H1.3V12.8z M17.9,13.7c0.2-0.4,0.5-0.7,0.9-0.9v0.9H17.9z"></path>
<path fill="#2C2A85" d="M10,6.6c-1.3,0-2.3,1.5-2.3,3.4s1,3.4,2.3,3.4c1.3,0,2.3-1.5,2.3-3.4S11.3,6.6,10,6.6z M10,12.4 c-0.6,0-1.3-1-1.3-2.4S9.4,7.6,10,7.6s1.3,1,1.3,2.4S10.6,12.4,10,12.4z"></path>
</svg>
