<svg xmlns="http://www.w3.org/2000/svg" viewBox="0 0 476 200"><path fill="#22528E" d="M169.248 63.662c.741-2.72 2.225-4.698 4.203-5.193 1.979-.742 4.699-.989 8.161-.989 3.709 0 6.429.247 8.407.989 1.978.742 3.461 2.473 4.204 5.193l19.04 70.72c0 .495-.248.741-.741.741h-12.364c-.743 0-.989-.246-1.236-.986l-4.946-18.795c-.247-.742-.495-.988-1.236-.988h-22.254c-.743 0-.989.494-1.236 1.236l-4.945 18.547c-.248.74-.495.986-1.237.986h-12.363c-.495 0-.743-.246-.743-.741l19.286-70.72zm13.6 9.643c-.248-.742-.248-1.236-.495-1.483 0-.495-.248-.495-.494-.495-.247 0-.742.742-.99 1.978l-6.676 24.727v.496c0 .495.248.741.742.741h14.095c.494 0 .741-.246.741-.741v-.496l-6.923-24.727zM255.299 121.771c.741 0 .988.246.988.987v11.128c0 .74-.247.989-.988.989h-17.804c-3.463 0-6.677-.741-9.397-2.228-2.72-1.481-4.946-3.213-6.923-5.439-1.979-2.225-3.461-4.695-4.452-7.664a24.076 24.076 0 0 1-1.483-8.408v-9.146c0-3.71.494-6.924 1.483-9.892.99-2.967 2.227-5.439 4.204-7.418 1.978-1.978 4.451-3.709 7.418-4.698 2.968-1.236 6.677-1.731 10.882-1.731h16.071c.741 0 .988.248.988.99v11.127c0 .741-.247.989-.988.989h-17.804c-3.709 0-6.43 1.236-8.161 3.709-1.73 2.473-2.72 5.688-2.72 9.397v4.696c0 3.709.99 6.677 2.72 8.903 1.731 2.225 4.452 3.461 8.407 3.461h17.558l.001.248zM280.025 120.535c0 .742.246.988.988.988h7.913c.494 0 .741.494.741.99v11.127c0 .74-.247.986-.988.986H276.81c-2.474 0-4.451-.74-5.934-2.473-1.484-1.729-2.473-3.709-2.473-5.934V92.84c0-.742-.25-.99-.99-.99h-4.945c-.74 0-.988-.247-.988-.989V79.734c0-.741.248-.989.988-.989h4.945c.74 0 .99-.248.99-.989V63.909c0-.741.246-.989.986-.989h9.646c.741 0 .989.248.989.989v13.6c0 .741.246.989.988.989h7.666c.741 0 .988.248.988.989v11.127c0 .742-.247.99-.988.99h-7.666c-.742 0-.988.247-.988.989v27.942h.001zM297.087 57.232h9.646c.74 0 .986.248.986.99V69.35c0 .741-.246.989-.986.989h-9.646c-.741 0-.987-.248-.987-.989V58.222c0-.742.246-.99.987-.99zm-.987 22.255c0-.741.246-.989.987-.989h9.646c.74 0 .986.248.986.989v54.4c0 .741-.246.99-.986.99h-9.646c-.741 0-.987-.249-.987-.99v-54.4z"/><path fill="#9E1C29" d="M353.96 57.232h11.868c.744 0 .99.248.99.99v51.432c0 2.72-.246 4.945-.495 6.924-.246 1.979-.495 3.709-.987 4.945-.495 1.235-.99 2.473-1.73 3.709-.741 1.236-1.485 2.473-2.474 3.463-.989.986-1.979 1.978-3.215 2.719-1.235.74-2.474 1.484-3.709 1.979s-2.474.744-3.709 1.235c-1.485.249-2.968.495-4.453.495h-11.127c-1.978 0-3.955-.246-5.933-.741-1.731-.495-3.215-1.235-4.699-2.228-1.236-.986-2.473-1.977-3.461-2.965-1.236-1.484-2.227-2.722-2.969-4.203-.74-1.485-1.483-3.215-1.978-4.946-.495-1.731-.744-3.709-.744-5.687V58.222c0-.742.249-.99.99-.99h11.869c.741 0 .989.248.989.99v52.915c0 .744.246 1.98.494 2.969.248 1.236.742 2.227 1.237 3.215.492.988 1.236 1.73 2.224 2.473.742.743 1.731.99 2.969.99h9.891a4.75 4.75 0 0 0 2.969-.99c.987-.74 1.73-1.482 2.225-2.473.494-.988.988-1.979 1.484-3.215.245-1.236.494-2.225.494-3.215V58.222c.248-.742.495-.99.99-.99zM386.105 131.414c0 2.227-.988 3.463-2.721 3.463h-6.431c-.987 0-1.481-.495-1.978-1.236-.496-.74-.496-1.978-.496-2.968V85.668c0-1.73.744-3.461 1.98-4.945 1.236-1.482 2.965-2.225 4.945-2.225h21.511c2.228 0 4.453.495 6.431 1.484 1.979.989 3.709 2.473 5.191 4.204 1.484 1.73 2.723 3.709 3.463 5.934.741 2.226 1.236 4.451 1.236 6.923v36.844c0 .74-.248.989-.99.989h-9.643c-.743 0-.989-.249-.989-.989V99.269c0-1.73-.246-3.214-.741-4.45-.495-1.236-1.236-1.978-1.979-2.72-.743-.742-1.73-.989-2.967-1.236-1.236-.248-2.474-.494-3.709-.494h-9.15c-.741 0-1.236.247-1.979.989-.494.494-.988 1.236-.988 1.73v38.326h.004zM427.646 57.232h9.645c.741 0 .99.248.99.99V69.35c0 .741-.249.989-.99.989h-9.645c-.741 0-.988-.248-.988-.989V58.222c0-.742.247-.99.988-.99zm-.988 22.255c0-.741.247-.989.988-.989h9.645c.741 0 .99.248.99.989v54.4c0 .741-.249.99-.99.99h-9.645c-.741 0-.988-.249-.988-.99v-54.4zM462.265 120.535c0 .742.249.988.99.988h7.913c.495 0 .741.494.741.99v11.127c0 .74-.246.986-.99.986h-11.868c-2.473 0-4.451-.74-5.934-2.473-1.485-1.729-2.474-3.709-2.474-5.934V92.84c0-.742-.249-.99-.989-.99h-4.945c-.741 0-.99-.247-.99-.989V79.734c0-.741.249-.989.99-.989h4.945c.74 0 .989-.248.989-.989V63.909c0-.741.246-.989.987-.989h9.646c.74 0 .986.248.986.989v13.6c0 .741.249.989.99.989h7.664c.744 0 .99.248.99.989v11.127c0 .742-.246.99-.99.99h-7.664c-.741 0-.99.247-.99.989l.003 27.942z"/><circle fill="#FFF" cx="70.091" cy="101" r="68"/><circle opacity=".15" fill="#28348A" cx="70.091" cy="101" r="68"/><path fill="#22528E" d="M45.859 136.113c12.116-1.979 23.984-7.172 34.864-13.354 10.633-6.429 20.524-14.342 28.19-23.491 2.719-3.461 5.439-7.17 7.171-10.88-.989.248-1.979.743-2.968.989-3.957 1.236-7.666 2.226-11.375 2.968-7.665 1.483-15.083 1.978-22.501 1.978-3.709 0-7.418 0-11.127-.247-1.731 0-3.709-.248-5.44-.495-1.978-.248-3.709-.248-5.44-.495-14.836-1.978-29.178-5.439-42.778-10.632h-.248c-3.957 11.622-4.203 24.728 0 37.337 1.731 4.945 3.957 9.398 6.429 13.6 2.225 1.236 4.698 2.228 7.171 2.969 5.688.99 11.87.742 18.052-.247z"/><path fill="#9E1C29" d="M87.895 136.607c-12.859 5.688-26.458 9.892-40.8 10.879-4.699.248-9.645.248-14.343-.741 15.084 12.61 36.35 17.063 56.379 10.387 22.996-7.667 38.08-27.94 40.058-50.444-1.73 2.227-3.709 4.203-5.687 5.936-10.633 10.384-22.997 18.049-35.607 23.983z"/><path fill="#FFF" d="M97.539 74.542c2.966-.742 5.934-1.978 8.902-2.967 2.719-1.236 5.192-2.473 7.171-4.204a10.992 10.992 0 0 0 2.966-2.966c-14.836-19.041-40.8-27.695-65.032-19.536-14.589 4.945-26.211 15.084-33.134 27.695 12.857 3.709 26.211 5.687 39.563 6.182 13.6.247 27.2-.742 39.564-4.204z"/></svg>