<svg xmlns="http://www.w3.org/2000/svg" viewBox="0 0 510 200"><path fill="#22528E" d="M168.888 62.835c.759-2.818 2.149-4.589 4.175-5.313 2.023-.722 4.775-1.085 8.254-1.085 3.605 0 6.438.363 8.492 1.085 2.055.724 3.463 2.494 4.222 5.313l19.07 70.699c0 .434-.222.649-.664.649h-12.429c-.633 0-1.043-.324-1.233-.977l-5.026-18.76c-.19-.723-.604-1.086-1.233-1.086h-22.297c-.633 0-1.043.398-1.233 1.193l-5.026 18.543c-.19.723-.604 1.084-1.233 1.084h-12.334c-.507 0-.759-.218-.759-.649l19.254-70.696zm13.568 9.651c-.19-.795-.351-1.318-.477-1.572-.127-.253-.348-.38-.664-.38-.315 0-.664.65-1.044 1.952l-6.641 24.723a.892.892 0 0 1-.048.325.538.538 0 0 0-.047.217c0 .507.252.759.759.759h14.137c.506 0 .759-.252.759-.759a.574.574 0 0 0-.047-.217.816.816 0 0 1-.048-.325l-6.639-24.723zM254.849 120.956c.631 0 .949.362.949 1.084v11.062c0 .724-.318 1.084-.949 1.084h-17.837c-3.479 0-6.579-.705-9.298-2.115-2.721-1.408-5.029-3.252-6.926-5.528a25.208 25.208 0 0 1-4.365-7.591c-1.012-2.781-1.52-5.549-1.52-8.297v-9.106c0-3.687.458-6.994 1.376-9.922.916-2.927 2.341-5.421 4.271-7.481 1.929-2.061 4.412-3.649 7.448-4.771 3.036-1.119 6.642-1.681 10.814-1.681h16.035c.631 0 .949.363.949 1.085v11.06c0 .724-.318 1.085-.949 1.085h-17.932c-3.669 0-6.404 1.266-8.207 3.795-1.803 2.531-2.704 5.639-2.704 9.325v4.663c0 3.614.869 6.562 2.608 8.837 1.738 2.275 4.508 3.416 8.303 3.416h17.931l.003-.004zM279.707 119.871c0 .725.313 1.085.946 1.085h7.973c.506.071.759.435.759 1.084v11.062c0 .724-.317 1.084-.948 1.084h-11.955c-2.402 0-4.396-.83-5.978-2.494-1.582-1.662-2.372-3.612-2.372-5.854V92.004c0-.722-.317-1.084-.949-1.084h-5.028c-.633 0-.946-.361-.946-1.085v-11.06c0-.722.313-1.085.946-1.085h5.028c.632 0 .949-.36.949-1.084V63.053c0-.723.314-1.085.949-1.085h9.678c.631 0 .948.362.948 1.085v13.554c0 .724.313 1.084.947 1.084h7.78c.631 0 .948.363.948 1.085v11.06c0 .724-.317 1.085-.948 1.085h-7.78c-.634 0-.947.362-.947 1.084v27.866zM296.688 56.438h9.678c.632 0 .949.363.949 1.085v11.06c0 .724-.317 1.085-.949 1.085h-9.678c-.633 0-.948-.361-.948-1.085v-11.06c0-.722.316-1.085.948-1.085zm-.948 22.337c0-.722.315-1.085.948-1.085h9.678c.632 0 .949.363.949 1.085V133.1c0 .725-.317 1.084-.949 1.084h-9.678c-.633 0-.948-.359-.948-1.084V78.775z"/><path fill="#099" d="M312.153 121.173c0-.722.316-1.085.949-1.085h18.597c.761 0 1.532-.288 2.324-.867a11.377 11.377 0 0 0 2.183-2.113 13.291 13.291 0 0 0 1.66-2.656c.441-.938.664-1.807.664-2.604V57.522c0-.722.316-1.085.949-1.085h11.859c.632 0 .947.363.947 1.085v52.156c0 8.53-2.149 14.747-6.45 18.65-4.304 3.902-10.88 5.855-19.735 5.855h-12.998c-.633 0-.949-.361-.949-1.084v-11.926zM406.084 112.281c0 4.337-.332 7.914-.996 10.734-.664 2.817-1.679 5.062-3.036 6.724-1.361 1.663-3.084 2.817-5.171 3.47-2.087.65-4.587.977-7.495.977h-16.891c-2.908 0-5.313-.598-7.211-1.789a13.695 13.695 0 0 1-4.555-4.664c-1.139-1.914-1.93-4.082-2.371-6.506a41.35 41.35 0 0 1-.664-7.428V94.715c0-2.603.396-4.95 1.188-7.048.79-2.096 1.85-3.886 3.178-5.368a13.677 13.677 0 0 1 4.697-3.415 14.063 14.063 0 0 1 5.738-1.193h19.166c1.707 0 3.432.363 5.172 1.085 1.737.724 3.287 1.789 4.647 3.198 1.359 1.41 2.467 3.109 3.321 5.097.854 1.989 1.28 4.283 1.28 6.886l.003 18.324zm-11.672-15.939c0-.868-.235-1.644-.712-2.332a6.156 6.156 0 0 0-1.85-1.734 8.375 8.375 0 0 0-2.563-1.03 12.7 12.7 0 0 0-2.846-.325H376.1c-.822 0-1.646.091-2.467.271a6.664 6.664 0 0 0-2.23.922 5.412 5.412 0 0 0-1.66 1.735c-.441.724-.664 1.591-.664 2.603v17.349c0 1.447.271 2.641.809 3.578.537.939 1.217 1.682 2.04 2.225a7.249 7.249 0 0 0 2.657 1.084c.946.183 1.831.271 2.654.271h8.729c2.275 0 4.254-.611 5.93-1.844 1.676-1.229 2.515-2.782 2.515-4.663v-18.11zM425.532 77.69h17.934c3.037 0 5.629.688 7.779 2.061 2.148 1.374 3.921 3.308 5.313 5.801 1.391 2.494 2.42 5.514 3.084 9.055.664 3.543.996 7.446.996 11.711a48.2 48.2 0 0 1-1.044 9.867c-.696 3.324-1.74 6.308-3.131 8.944-1.394 2.642-3.181 4.81-5.36 6.506-2.183 1.699-4.729 2.55-7.639 2.55h-29.508c-.635 0-.947-.361-.947-1.084v-75.58c0-.722.313-1.085.947-1.085h9.679c.632 0 .948.363.948 1.085v19.084c.002.725.318 1.085.949 1.085zm-.947 42.181c0 .725.314 1.085.947 1.085h10.343c1.961 0 3.764-.217 5.407-.651 1.646-.434 3.036-1.19 4.177-2.275 1.138-1.086 2.021-2.564 2.654-4.445.632-1.879.948-4.3.948-7.266 0-3.182-.316-5.782-.948-7.809-.633-2.022-1.534-3.595-2.704-4.717-1.171-1.12-2.562-1.879-4.174-2.277-1.613-.396-3.399-.596-5.361-.596h-10.342c-.633 0-.949.362-.949 1.084l.002 27.867zM466.522 120.956h26.092c.885 0 1.58-.163 2.086-.488s.902-.739 1.188-1.247a4.266 4.266 0 0 0 .521-1.681c.063-.613.096-1.174.096-1.681 0-.938-.205-1.879-.616-2.819-.412-.938-1.249-1.409-2.517-1.409h-14.896c-2.276 0-4.208-.415-5.788-1.247a9.859 9.859 0 0 1-3.795-3.47c-.949-1.48-1.646-3.254-2.087-5.313-.443-2.063-.665-4.319-.665-6.777 0-3.614.363-6.542 1.092-8.783.729-2.239 1.834-3.975 3.32-5.205 1.484-1.228 3.383-2.06 5.691-2.493 2.311-.435 5.076-.651 8.304-.651h20.493c.633 0 .947.363.947 1.085v11.06c0 .724-.314 1.085-.947 1.085h-24.857c-1.013 0-1.74.417-2.183 1.247-.442.832-.664 1.753-.664 2.765 0 .94.235 1.881.712 2.819.475.94 1.186 1.409 2.135 1.409h13.852c2.469 0 4.586.309 6.357.922 1.77.615 3.209 1.646 4.316 3.091 1.104 1.446 1.93 3.415 2.467 5.909s.807 5.622.807 9.38c0 1.084-.142 2.513-.426 4.283a20.804 20.804 0 0 1-1.566 5.204 12.955 12.955 0 0 1-3.178 4.392c-1.361 1.23-3.117 1.845-5.266 1.845h-31.025c-.634 0-.949-.36-.949-1.084V122.04c0-.722.316-1.084.949-1.084z"/><circle fill="#FFF" cx="70.017" cy="100" r="68"/><circle opacity=".15" fill="#28348A" cx="70.017" cy="100" r="68"/><path fill="#22528E" d="M45.826 135.055c12.187-2.093 23.993-7.07 34.754-13.443 10.725-6.396 20.552-14.389 28.07-23.563 2.837-3.471 5.326-7.15 7.148-10.786-.981.373-1.958.717-2.94 1.044-3.842 1.266-7.651 2.174-11.439 2.874-7.586 1.38-15.075 1.915-22.49 1.972a164.89 164.89 0 0 1-11.074-.302 171.532 171.532 0 0 1-5.465-.405 223.152 223.152 0 0 1-5.487-.575c-14.525-1.777-28.819-5.111-42.447-10.516-.097-.035-.188-.074-.278-.111-3.929 11.73-4.23 24.783-.033 37.429a59.453 59.453 0 0 0 6.536 13.591c2.103 1.346 4.573 2.299 7.214 2.856 5.663 1.212 11.871.943 17.931-.065z"/><path fill="#099" d="M87.76 135.488c-12.814 5.781-26.466 9.888-40.728 10.768-4.758.25-9.604.139-14.436-.658 15.158 12.5 36.201 17.159 56.205 10.496 22.874-7.629 37.962-27.916 40.12-50.5a96.375 96.375 0 0 1-5.611 6.025c-10.603 10.315-22.742 17.986-35.55 23.869z"/><path fill="#FFF" d="M97.476 73.635c3.072-.852 6.045-1.855 8.797-3.048 2.745-1.178 5.279-2.569 7.277-4.077 1.369-1.009 2.419-2.111 3.047-3.018-14.957-19.074-40.783-27.68-65.084-19.583-14.677 4.896-26.148 15.005-33.063 27.586 12.808 3.771 26.224 5.676 39.558 6.122 13.479.402 27.107-.618 39.468-3.982z"/></svg>