<?xml version="1.0" encoding="utf-8"?>
<!-- Generator: Adobe Illustrator 23.1.0, SVG Export Plug-In . SVG Version: 6.00 Build 0)  -->
<svg version="1.1" id="Vrstva_1" xmlns="http://www.w3.org/2000/svg" xmlns:xlink="http://www.w3.org/1999/xlink" x="0px" y="0px"
	 viewBox="0 0 85 56.7" style="enable-background:new 0 0 85 56.7;" xml:space="preserve">
<style type="text/css">
	.st0{fill:#E5262A;}
	.st1{fill:#144F9F;}
	.st2{fill:#FFFFFF;}
</style>
<title>sk</title>
<rect y="37.8" class="st0" width="85" height="18.9"/>
<rect y="18.9" class="st1" width="85" height="18.9"/>
<rect y="0" class="st2" width="85" height="18.9"/>
<path id="_Path_" class="st2" d="M37.2,13.3H13.8l-0.1,0.8c0,0.2-0.4,4.2-0.4,12.9c0,4,1.4,7.9,4.1,10.8c2.2,2.3,4.8,4.2,7.7,5.5
	l0.4,0.2l0.4-0.2c2.9-1.3,5.5-3.2,7.7-5.5c2.7-2.9,4.2-6.8,4.1-10.8c0-8.8-0.4-12.8-0.4-12.9L37.2,13.3L37.2,13.3z"/>
<path class="st0" d="M25.5,42.5c-4.7-2.2-11.3-6.7-11.3-15.5s0.4-12.8,0.4-12.8h21.8c0,0,0.4,4,0.4,12.8S30.2,40.3,25.5,42.5z"/>
<path class="st2" d="M26.5,24.7c2,0.1,4-0.1,5.9-0.7c0,0-0.1,0.8-0.1,1.7c0,0.9,0.1,1.7,0.1,1.7c-1.9-0.5-3.9-0.8-5.9-0.7v4.9h-2
	v-4.9c-2-0.1-4,0.1-5.9,0.7c0,0,0.1-0.8,0.1-1.7c0-0.9-0.1-1.7-0.1-1.7c1.9,0.5,3.9,0.8,5.9,0.7v-3.1c-1.6,0-3.2,0.2-4.7,0.7
	c0,0,0.1-0.8,0.1-1.7s-0.1-1.7-0.1-1.7c1.5,0.5,3.1,0.7,4.7,0.7c-0.1-1.5-0.3-2.9-0.6-4.4c0,0,1.2,0.1,1.6,0.1
	c0.5,0,1.6-0.1,1.6-0.1c-0.3,1.4-0.5,2.9-0.6,4.4c1.6,0,3.2-0.2,4.7-0.7c0,0-0.1,0.8-0.1,1.7s0.1,1.7,0.1,1.7
	c-1.5-0.5-3.1-0.7-4.7-0.7L26.5,24.7L26.5,24.7z"/>
<path class="st1" d="M25.5,31.1c-2.3,0-3.6,3.3-3.6,3.3c-0.5-1-1.5-1.6-2.6-1.5C18,32.8,17,34,16.4,35c2.4,3.8,6.1,6.1,9.1,7.5
	c3-1.4,6.7-3.7,9.1-7.5C34,34,33,32.8,31.7,32.8c-1.1,0-2.1,0.6-2.6,1.5C29.1,34.4,27.9,31.1,25.5,31.1z"/>
</svg>
