<?xml version="1.0" encoding="utf-8"?>
<!-- Generator: Adobe Illustrator 24.0.0, SVG Export Plug-In . SVG Version: 6.00 Build 0)  -->
<svg version="1.1" id="Vrstva_1" xmlns="http://www.w3.org/2000/svg" xmlns:xlink="http://www.w3.org/1999/xlink" x="0px" y="0px"
	 viewBox="0 0 20 20" style="enable-background:new 0 0 20 20;" xml:space="preserve">
<path d="M19.8,4.6c-0.1-0.1-0.2-0.3-0.3-0.4l0,0C19.4,4.1,19.3,4,19.1,4c-0.2-0.1-0.5-0.2-0.7-0.2H1.6C1.3,3.8,1.1,3.9,0.9,4
	C0.6,4.1,0.4,4.3,0.2,4.6C0.1,4.9,0,5.1,0,5.4v9.2c0,0.9,0.7,1.6,1.6,1.6h16.8c0.9,0,1.6-0.7,1.6-1.6V5.4C20,5.1,19.9,4.9,19.8,4.6z
	 M18.1,4.7l-7.7,5.5c-0.2,0.2-0.6,0.2-0.8,0L1.9,4.7H18.1z M19.1,14.6c0,0.4-0.3,0.7-0.7,0.7H1.6c-0.4,0-0.7-0.3-0.7-0.7V5.4
	C0.9,5.3,1,5.3,1,5.2L9,11c0.3,0.2,0.6,0.3,1,0.3c0.3,0,0.7-0.1,1-0.3l8-5.8c0,0.1,0.1,0.1,0.1,0.2V14.6z"/>
</svg>
