<?xml version="1.0" encoding="utf-8"?>
<!-- Generator: Adobe Illustrator 16.0.0, SVG Export Plug-In . SVG Version: 6.00 Build 0)  -->
<!DOCTYPE svg PUBLIC "-//W3C//DTD SVG 1.1//EN" "http://www.w3.org/Graphics/SVG/1.1/DTD/svg11.dtd" [
	<!ENTITY ns_extend "http://ns.adobe.com/Extensibility/1.0/">
	<!ENTITY ns_ai "http://ns.adobe.com/AdobeIllustrator/10.0/">
	<!ENTITY ns_graphs "http://ns.adobe.com/Graphs/1.0/">
	<!ENTITY ns_vars "http://ns.adobe.com/Variables/1.0/">
	<!ENTITY ns_imrep "http://ns.adobe.com/ImageReplacement/1.0/">
	<!ENTITY ns_sfw "http://ns.adobe.com/SaveForWeb/1.0/">
	<!ENTITY ns_custom "http://ns.adobe.com/GenericCustomNamespace/1.0/">
	<!ENTITY ns_adobe_xpath "http://ns.adobe.com/XPath/1.0/">
]>
<svg version="1.1" id="Vrstva_1" xmlns:x="&ns_extend;" xmlns:i="&ns_ai;" xmlns:graph="&ns_graphs;"
	 xmlns="http://www.w3.org/2000/svg" xmlns:xlink="http://www.w3.org/1999/xlink" x="0px" y="0px" width="476px" height="200px"
	 viewBox="0 0 476 200" enable-background="new 0 0 476 200" xml:space="preserve">
<metadata>
	<sfw  xmlns="&ns_sfw;">
		<slices></slices>
		<sliceSourceBounds  height="136" width="469.818" x="18.591" y="31.5" bottomLeftOrigin="true"></sliceSourceBounds>
		<optimizationSettings>
			<targetSettings  fileFormat="PNG24Format" targetSettingsID="0">
				<PNG24Format  transparency="true" interlaced="false" noMatteColor="false" matteColor="#FFFFFF" filtered="false">
					</PNG24Format>
			</targetSettings>
		</optimizationSettings>
	</sfw>
</metadata>
<g>
	<path fill="#22528E" d="M169.248,63.662c0.741-2.72,2.225-4.698,4.203-5.193c1.979-0.742,4.699-0.989,8.161-0.989
		c3.709,0,6.429,0.247,8.407,0.989c1.978,0.742,3.461,2.473,4.204,5.193l19.04,70.72c0,0.495-0.248,0.741-0.741,0.741h-12.364
		c-0.743,0-0.989-0.246-1.236-0.986l-4.946-18.795c-0.247-0.742-0.495-0.988-1.236-0.988h-22.254c-0.743,0-0.989,0.494-1.236,1.236
		l-4.945,18.547c-0.248,0.74-0.495,0.986-1.237,0.986h-12.363c-0.495,0-0.743-0.246-0.743-0.741L169.248,63.662z M182.848,73.305
		c-0.248-0.742-0.248-1.236-0.495-1.483c0-0.495-0.248-0.495-0.494-0.495c-0.247,0-0.742,0.742-0.99,1.978l-6.676,24.727
		c0,0.248,0,0.248,0,0.248v0.248c0,0.495,0.248,0.741,0.742,0.741h14.095c0.494,0,0.741-0.246,0.741-0.741V98.28v-0.248
		L182.848,73.305z"/>
	<path fill="#22528E" d="M255.299,121.771c0.741,0,0.988,0.246,0.988,0.987v11.128c0,0.74-0.247,0.989-0.988,0.989h-17.804
		c-3.463,0-6.677-0.741-9.397-2.228c-2.72-1.481-4.946-3.213-6.923-5.439c-1.979-2.225-3.461-4.695-4.452-7.664
		c-0.989-2.72-1.483-5.439-1.483-8.408v-9.146c0-3.71,0.494-6.924,1.483-9.892c0.99-2.967,2.227-5.439,4.204-7.418
		c1.978-1.978,4.451-3.709,7.418-4.698c2.968-1.236,6.677-1.731,10.882-1.731h16.071c0.741,0,0.988,0.248,0.988,0.99v11.127
		c0,0.741-0.247,0.989-0.988,0.989h-17.804c-3.709,0-6.43,1.236-8.161,3.709c-1.73,2.473-2.72,5.688-2.72,9.397v4.696
		c0,3.709,0.99,6.677,2.72,8.903c1.731,2.225,4.452,3.461,8.407,3.461h17.558L255.299,121.771L255.299,121.771z"/>
	<path fill="#22528E" d="M280.025,120.535c0,0.742,0.246,0.988,0.988,0.988h7.913c0.494,0,0.741,0.494,0.741,0.99v11.127
		c0,0.74-0.247,0.986-0.988,0.986h-11.869c-2.474,0-4.451-0.74-5.934-2.473c-1.484-1.729-2.473-3.709-2.473-5.934V92.84
		c0-0.742-0.25-0.99-0.99-0.99h-4.945c-0.74,0-0.988-0.247-0.988-0.989V79.734c0-0.741,0.248-0.989,0.988-0.989h4.945
		c0.74,0,0.99-0.248,0.99-0.989V63.909c0-0.741,0.246-0.989,0.986-0.989h9.646c0.741,0,0.989,0.248,0.989,0.989v13.6
		c0,0.741,0.246,0.989,0.988,0.989h7.666c0.741,0,0.988,0.248,0.988,0.989v11.127c0,0.742-0.247,0.99-0.988,0.99h-7.666
		c-0.742,0-0.988,0.247-0.988,0.989V120.535L280.025,120.535z"/>
	<path fill="#22528E" d="M297.087,57.232h9.646c0.74,0,0.986,0.248,0.986,0.99V69.35c0,0.741-0.246,0.989-0.986,0.989h-9.646
		c-0.741,0-0.987-0.248-0.987-0.989V58.222C296.1,57.48,296.346,57.232,297.087,57.232z M296.1,79.487
		c0-0.741,0.246-0.989,0.987-0.989h9.646c0.74,0,0.986,0.248,0.986,0.989v54.4c0,0.741-0.246,0.99-0.986,0.99h-9.646
		c-0.741,0-0.987-0.249-0.987-0.99V79.487z"/>
	<path fill="#9E1C29" d="M353.96,57.232h11.868c0.744,0,0.99,0.248,0.99,0.99v51.432c0,2.72-0.246,4.945-0.495,6.924
		c-0.246,1.979-0.495,3.709-0.987,4.945c-0.495,1.235-0.99,2.473-1.73,3.709c-0.741,1.236-1.485,2.473-2.474,3.463
		c-0.989,0.986-1.979,1.978-3.215,2.719c-1.235,0.74-2.474,1.484-3.709,1.979s-2.474,0.744-3.709,1.235
		c-1.485,0.249-2.968,0.495-4.453,0.495h-11.127c-1.978,0-3.955-0.246-5.933-0.741c-1.731-0.495-3.215-1.235-4.699-2.228
		c-1.236-0.986-2.473-1.977-3.461-2.965c-1.236-1.484-2.227-2.722-2.969-4.203c-0.74-1.485-1.483-3.215-1.978-4.946
		c-0.495-1.731-0.744-3.709-0.744-5.687V58.222c0-0.742,0.249-0.99,0.99-0.99h11.869c0.741,0,0.989,0.248,0.989,0.99v52.915
		c0,0.744,0.246,1.98,0.494,2.969c0.248,1.236,0.742,2.227,1.237,3.215c0.492,0.988,1.236,1.73,2.224,2.473
		c0.742,0.743,1.731,0.99,2.969,0.99h9.891c0.99,0,1.979-0.247,2.969-0.99c0.987-0.74,1.73-1.482,2.225-2.473
		c0.494-0.988,0.988-1.979,1.484-3.215c0.245-1.236,0.494-2.225,0.494-3.215V58.222C353.218,57.48,353.465,57.232,353.96,57.232z"/>
	<path fill="#9E1C29" d="M386.105,131.414c0,2.227-0.988,3.463-2.721,3.463h-6.431c-0.987,0-1.481-0.495-1.978-1.236
		c-0.496-0.74-0.496-1.978-0.496-2.968V85.668c0-1.73,0.744-3.461,1.98-4.945c1.236-1.482,2.965-2.225,4.945-2.225h21.511
		c2.228,0,4.453,0.495,6.431,1.484c1.979,0.989,3.709,2.473,5.191,4.204c1.484,1.73,2.723,3.709,3.463,5.934
		c0.741,2.226,1.236,4.451,1.236,6.923v36.844c0,0.74-0.248,0.989-0.99,0.989h-9.643c-0.743,0-0.989-0.249-0.989-0.989V99.269
		c0-1.73-0.246-3.214-0.741-4.45c-0.495-1.236-1.236-1.978-1.979-2.72c-0.743-0.742-1.73-0.989-2.967-1.236
		c-1.236-0.248-2.474-0.494-3.709-0.494h-9.15c-0.741,0-1.236,0.247-1.979,0.989c-0.494,0.494-0.988,1.236-0.988,1.73v38.326
		H386.105z"/>
	<path fill="#9E1C29" d="M427.646,57.232h9.645c0.741,0,0.99,0.248,0.99,0.99V69.35c0,0.741-0.249,0.989-0.99,0.989h-9.645
		c-0.741,0-0.988-0.248-0.988-0.989V58.222C426.658,57.48,426.905,57.232,427.646,57.232z M426.658,79.487
		c0-0.741,0.247-0.989,0.988-0.989h9.645c0.741,0,0.99,0.248,0.99,0.989v54.4c0,0.741-0.249,0.99-0.99,0.99h-9.645
		c-0.741,0-0.988-0.249-0.988-0.99V79.487z"/>
	<path fill="#9E1C29" d="M462.265,120.535c0,0.742,0.249,0.988,0.99,0.988h7.913c0.495,0,0.741,0.494,0.741,0.99v11.127
		c0,0.74-0.246,0.986-0.99,0.986h-11.868c-2.473,0-4.451-0.74-5.934-2.473c-1.485-1.729-2.474-3.709-2.474-5.934V92.84
		c0-0.742-0.249-0.99-0.989-0.99h-4.945c-0.741,0-0.99-0.247-0.99-0.989V79.734c0-0.741,0.249-0.989,0.99-0.989h4.945
		c0.74,0,0.989-0.248,0.989-0.989V63.909c0-0.741,0.246-0.989,0.987-0.989h9.646c0.74,0,0.986,0.248,0.986,0.989v13.6
		c0,0.741,0.249,0.989,0.99,0.989h7.664c0.744,0,0.99,0.248,0.99,0.989v11.127c0,0.742-0.246,0.99-0.99,0.99h-7.664
		c-0.741,0-0.99,0.247-0.99,0.989L462.265,120.535L462.265,120.535z"/>
	<circle fill="#FFFFFF" cx="70.091" cy="101" r="68"/>
	<circle opacity="0.15" fill="#28348A" enable-background="new    " cx="70.091" cy="101" r="68"/>
	<path fill="#22528E" d="M45.859,136.113c12.116-1.979,23.984-7.172,34.864-13.354c10.633-6.429,20.524-14.342,28.19-23.491
		c2.719-3.461,5.439-7.17,7.171-10.88c-0.989,0.248-1.979,0.743-2.968,0.989c-3.957,1.236-7.666,2.226-11.375,2.968
		c-7.665,1.483-15.083,1.978-22.501,1.978c-3.709,0-7.418,0-11.127-0.247c-1.731,0-3.709-0.248-5.44-0.495
		c-1.978-0.248-3.709-0.248-5.44-0.495c-14.836-1.978-29.178-5.439-42.778-10.632h-0.248c-3.957,11.622-4.203,24.728,0,37.337
		c1.731,4.945,3.957,9.398,6.429,13.6c2.225,1.236,4.698,2.228,7.171,2.969C33.495,137.35,39.677,137.102,45.859,136.113z"/>
	<path fill="#9E1C29" d="M87.895,136.607c-12.859,5.688-26.458,9.892-40.8,10.879c-4.699,0.248-9.645,0.248-14.343-0.741
		c15.084,12.61,36.35,17.063,56.379,10.387c22.996-7.667,38.08-27.94,40.058-50.444c-1.73,2.227-3.709,4.203-5.687,5.936
		C112.869,123.008,100.505,130.673,87.895,136.607z"/>
	<path fill="#FFFFFF" d="M97.539,74.542c2.966-0.742,5.934-1.978,8.902-2.967c2.719-1.236,5.192-2.473,7.171-4.204
		c1.484-0.989,2.473-2.225,2.966-2.966c-14.836-19.041-40.8-27.695-65.032-19.536c-14.589,4.945-26.211,15.084-33.134,27.695
		c12.857,3.709,26.211,5.687,39.563,6.182C71.575,78.993,85.175,78.004,97.539,74.542z"/>
</g>
</svg>
