<?xml version="1.0" encoding="utf-8"?>
<!-- Generator: Adobe Illustrator 16.0.0, SVG Export Plug-In . SVG Version: 6.00 Build 0)  -->
<!DOCTYPE svg PUBLIC "-//W3C//DTD SVG 1.1//EN" "http://www.w3.org/Graphics/SVG/1.1/DTD/svg11.dtd" [
	<!ENTITY ns_extend "http://ns.adobe.com/Extensibility/1.0/">
	<!ENTITY ns_ai "http://ns.adobe.com/AdobeIllustrator/10.0/">
	<!ENTITY ns_graphs "http://ns.adobe.com/Graphs/1.0/">
	<!ENTITY ns_vars "http://ns.adobe.com/Variables/1.0/">
	<!ENTITY ns_imrep "http://ns.adobe.com/ImageReplacement/1.0/">
	<!ENTITY ns_sfw "http://ns.adobe.com/SaveForWeb/1.0/">
	<!ENTITY ns_custom "http://ns.adobe.com/GenericCustomNamespace/1.0/">
	<!ENTITY ns_adobe_xpath "http://ns.adobe.com/XPath/1.0/">
]>
<svg version="1.1" id="Vrstva_1" xmlns:x="&ns_extend;" xmlns:i="&ns_ai;" xmlns:graph="&ns_graphs;"
	 xmlns="http://www.w3.org/2000/svg" xmlns:xlink="http://www.w3.org/1999/xlink" x="0px" y="0px" width="510px" height="200px"
	 viewBox="0 0 510 200" enable-background="new 0 0 510 200" xml:space="preserve">
<metadata>
	<sfw  xmlns="&ns_sfw;">
		<slices></slices>
		<sliceSourceBounds  width="505.966" height="136" y="32.5" x="-153.483" bottomLeftOrigin="true"></sliceSourceBounds>
	</sfw>
</metadata>
<path fill="#22528E" d="M168.888,62.835c0.759-2.818,2.149-4.589,4.175-5.313c2.023-0.722,4.775-1.085,8.254-1.085
	c3.605,0,6.438,0.363,8.492,1.085c2.055,0.724,3.463,2.494,4.222,5.313l19.07,70.699c0,0.434-0.222,0.649-0.664,0.649h-12.429
	c-0.633,0-1.043-0.324-1.233-0.977l-5.026-18.76c-0.19-0.723-0.604-1.086-1.233-1.086h-22.297c-0.633,0-1.043,0.398-1.233,1.193
	l-5.026,18.543c-0.19,0.723-0.604,1.084-1.233,1.084h-12.334c-0.507,0-0.759-0.218-0.759-0.649L168.888,62.835z M182.456,72.486
	c-0.19-0.795-0.351-1.318-0.477-1.572c-0.127-0.253-0.348-0.38-0.664-0.38c-0.315,0-0.664,0.65-1.044,1.952l-6.641,24.723
	c0,0.146-0.019,0.254-0.048,0.325c-0.032,0.073-0.047,0.146-0.047,0.217c0,0.507,0.252,0.759,0.759,0.759h14.137
	c0.506,0,0.759-0.252,0.759-0.759c0-0.071-0.017-0.144-0.047-0.217c-0.033-0.071-0.048-0.18-0.048-0.325L182.456,72.486z"/>
<path fill="#22528E" d="M254.849,120.956c0.631,0,0.949,0.362,0.949,1.084v11.062c0,0.724-0.318,1.084-0.949,1.084h-17.837
	c-3.479,0-6.579-0.705-9.298-2.115c-2.721-1.408-5.029-3.252-6.926-5.528c-1.898-2.276-3.354-4.808-4.365-7.591
	c-1.012-2.781-1.52-5.549-1.52-8.297v-9.106c0-3.687,0.458-6.994,1.376-9.922c0.916-2.927,2.341-5.421,4.271-7.481
	c1.929-2.061,4.412-3.649,7.448-4.771c3.036-1.119,6.642-1.681,10.814-1.681h16.035c0.631,0,0.949,0.363,0.949,1.085v11.06
	c0,0.724-0.318,1.085-0.949,1.085h-17.932c-3.669,0-6.404,1.266-8.207,3.795c-1.803,2.531-2.704,5.639-2.704,9.325v4.663
	c0,3.614,0.869,6.562,2.608,8.837c1.738,2.275,4.508,3.416,8.303,3.416h17.931L254.849,120.956L254.849,120.956z"/>
<path fill="#22528E" d="M279.707,119.871c0,0.725,0.313,1.085,0.946,1.085h7.973c0.506,0.071,0.759,0.435,0.759,1.084v11.062
	c0,0.724-0.317,1.084-0.948,1.084h-11.955c-2.402,0-4.396-0.83-5.978-2.494c-1.582-1.662-2.372-3.612-2.372-5.854V92.004
	c0-0.722-0.317-1.084-0.949-1.084h-5.028c-0.633,0-0.946-0.361-0.946-1.085v-11.06c0-0.722,0.313-1.085,0.946-1.085h5.028
	c0.632,0,0.949-0.36,0.949-1.084V63.053c0-0.723,0.314-1.085,0.949-1.085h9.678c0.631,0,0.948,0.362,0.948,1.085v13.554
	c0,0.724,0.313,1.084,0.947,1.084h7.78c0.631,0,0.948,0.363,0.948,1.085v11.06c0,0.724-0.317,1.085-0.948,1.085h-7.78
	c-0.634,0-0.947,0.362-0.947,1.084V119.871L279.707,119.871z"/>
<path fill="#22528E" d="M296.688,56.438h9.678c0.632,0,0.949,0.363,0.949,1.085v11.06c0,0.724-0.317,1.085-0.949,1.085h-9.678
	c-0.633,0-0.948-0.361-0.948-1.085v-11.06C295.74,56.801,296.056,56.438,296.688,56.438z M295.74,78.775
	c0-0.722,0.315-1.085,0.948-1.085h9.678c0.632,0,0.949,0.363,0.949,1.085V133.1c0,0.725-0.317,1.084-0.949,1.084h-9.678
	c-0.633,0-0.948-0.359-0.948-1.084V78.775z"/>
<path fill="#009999" d="M312.153,121.173c0-0.722,0.316-1.085,0.949-1.085h18.597c0.761,0,1.532-0.288,2.324-0.867
	c0.79-0.578,1.521-1.281,2.183-2.113c0.664-0.83,1.219-1.717,1.66-2.656c0.441-0.938,0.664-1.807,0.664-2.604V57.522
	c0-0.722,0.316-1.085,0.949-1.085h11.859c0.632,0,0.947,0.363,0.947,1.085v52.156c0,8.53-2.149,14.747-6.45,18.65
	c-4.304,3.902-10.88,5.855-19.735,5.855h-12.998c-0.633,0-0.949-0.361-0.949-1.084V121.173L312.153,121.173z"/>
<path fill="#009999" d="M406.084,112.281c0,4.337-0.332,7.914-0.996,10.734c-0.664,2.817-1.679,5.062-3.036,6.724
	c-1.361,1.663-3.084,2.817-5.171,3.47c-2.087,0.65-4.587,0.977-7.495,0.977h-16.891c-2.908,0-5.313-0.598-7.211-1.789
	c-1.896-1.191-3.416-2.746-4.555-4.664c-1.139-1.914-1.93-4.082-2.371-6.506c-0.441-2.42-0.664-4.896-0.664-7.428V94.715
	c0-2.603,0.396-4.95,1.188-7.048c0.79-2.096,1.85-3.886,3.178-5.368c1.329-1.48,2.895-2.619,4.697-3.415
	c1.803-0.795,3.715-1.193,5.738-1.193h19.166c1.707,0,3.432,0.363,5.172,1.085c1.737,0.724,3.287,1.789,4.647,3.198
	c1.359,1.41,2.467,3.109,3.321,5.097c0.854,1.989,1.28,4.283,1.28,6.886L406.084,112.281L406.084,112.281z M394.412,96.342
	c0-0.868-0.235-1.644-0.712-2.332c-0.475-0.686-1.091-1.264-1.85-1.734c-0.76-0.47-1.613-0.813-2.563-1.03
	c-0.946-0.217-1.896-0.325-2.846-0.325H376.1c-0.822,0-1.646,0.091-2.467,0.271c-0.823,0.182-1.566,0.488-2.23,0.922
	c-0.664,0.434-1.219,1.014-1.66,1.735c-0.441,0.724-0.664,1.591-0.664,2.603v17.349c0,1.447,0.271,2.641,0.809,3.578
	c0.537,0.939,1.217,1.682,2.04,2.225c0.819,0.541,1.708,0.903,2.657,1.084c0.946,0.183,1.831,0.271,2.654,0.271h8.729
	c2.275,0,4.254-0.611,5.93-1.844c1.676-1.229,2.515-2.782,2.515-4.663v-8.675V96.342z"/>
<path fill="#009999" d="M425.532,77.69h17.934c3.037,0,5.629,0.688,7.779,2.061c2.148,1.374,3.921,3.308,5.313,5.801
	c1.391,2.494,2.42,5.514,3.084,9.055c0.664,3.543,0.996,7.446,0.996,11.711c0,3.252-0.35,6.543-1.044,9.867
	c-0.696,3.324-1.74,6.308-3.131,8.944c-1.394,2.642-3.181,4.81-5.36,6.506c-2.183,1.699-4.729,2.55-7.639,2.55h-29.508
	c-0.635,0-0.947-0.361-0.947-1.084V57.521c0-0.722,0.313-1.085,0.947-1.085h9.679c0.632,0,0.948,0.363,0.948,1.085v19.084
	C424.585,77.33,424.901,77.69,425.532,77.69z M424.585,119.871c0,0.725,0.314,1.085,0.947,1.085h10.343
	c1.961,0,3.764-0.217,5.407-0.651c1.646-0.434,3.036-1.19,4.177-2.275c1.138-1.086,2.021-2.564,2.654-4.445
	c0.632-1.879,0.948-4.3,0.948-7.266c0-3.182-0.316-5.782-0.948-7.809c-0.633-2.022-1.534-3.595-2.704-4.717
	c-1.171-1.12-2.562-1.879-4.174-2.277c-1.613-0.396-3.399-0.596-5.361-0.596h-10.342c-0.633,0-0.949,0.362-0.949,1.084
	L424.585,119.871L424.585,119.871z"/>
<path fill="#009999" d="M466.522,120.956h26.092c0.885,0,1.58-0.163,2.086-0.488s0.902-0.739,1.188-1.247
	c0.284-0.505,0.458-1.063,0.521-1.681c0.063-0.613,0.096-1.174,0.096-1.681c0-0.938-0.205-1.879-0.616-2.819
	c-0.412-0.938-1.249-1.409-2.517-1.409h-14.896c-2.276,0-4.208-0.415-5.788-1.247c-1.582-0.829-2.846-1.987-3.795-3.47
	c-0.949-1.48-1.646-3.254-2.087-5.313c-0.443-2.063-0.665-4.319-0.665-6.777c0-3.614,0.363-6.542,1.092-8.783
	c0.729-2.239,1.834-3.975,3.32-5.205c1.484-1.228,3.383-2.06,5.691-2.493c2.311-0.435,5.076-0.651,8.304-0.651h20.493
	c0.633,0,0.947,0.363,0.947,1.085v11.06c0,0.724-0.314,1.085-0.947,1.085h-24.857c-1.013,0-1.74,0.417-2.183,1.247
	c-0.442,0.832-0.664,1.753-0.664,2.765c0,0.94,0.235,1.881,0.712,2.819c0.475,0.94,1.186,1.409,2.135,1.409h13.852
	c2.469,0,4.586,0.309,6.357,0.922c1.77,0.615,3.209,1.646,4.316,3.091c1.104,1.446,1.93,3.415,2.467,5.909s0.807,5.622,0.807,9.38
	c0,1.084-0.142,2.513-0.426,4.283c-0.285,1.771-0.807,3.507-1.566,5.204c-0.759,1.699-1.816,3.164-3.178,4.392
	c-1.361,1.23-3.117,1.845-5.266,1.845h-31.025c-0.634,0-0.949-0.36-0.949-1.084V122.04
	C465.573,121.318,465.889,120.956,466.522,120.956z"/>
<g>
	<circle fill="#FFFFFF" cx="70.017" cy="100" r="68"/>
	<circle opacity="0.15" fill="#28348A" enable-background="new    " cx="70.017" cy="100" r="68"/>
</g>
<path fill="#22528E" d="M45.826,135.055c12.187-2.093,23.993-7.07,34.754-13.443c10.725-6.396,20.552-14.389,28.07-23.563
	c2.837-3.471,5.326-7.15,7.148-10.786c-0.981,0.373-1.958,0.717-2.94,1.044c-3.842,1.266-7.651,2.174-11.439,2.874
	c-7.586,1.38-15.075,1.915-22.49,1.972c-3.715,0.028-7.405-0.083-11.074-0.302c-1.836-0.105-3.663-0.244-5.465-0.405
	c-1.873-0.169-3.659-0.365-5.487-0.575c-14.525-1.777-28.819-5.111-42.447-10.516c-0.097-0.035-0.188-0.074-0.278-0.111
	c-3.929,11.73-4.23,24.783-0.033,37.429c1.634,4.902,3.847,9.449,6.536,13.591c2.103,1.346,4.573,2.299,7.214,2.856
	C33.558,136.332,39.766,136.063,45.826,135.055z"/>
<path fill="#009999" d="M87.76,135.488c-12.814,5.781-26.466,9.888-40.728,10.768c-4.758,0.25-9.604,0.139-14.436-0.658
	c15.158,12.5,36.201,17.159,56.205,10.496c22.874-7.629,37.962-27.916,40.12-50.5c-1.803,2.119-3.684,4.117-5.611,6.025
	C112.707,121.934,100.568,129.605,87.76,135.488z"/>
<path fill="#FFFFFF" d="M97.476,73.635c3.072-0.852,6.045-1.855,8.797-3.048c2.745-1.178,5.279-2.569,7.277-4.077
	c1.369-1.009,2.419-2.111,3.047-3.018c-14.957-19.074-40.783-27.68-65.084-19.583C36.836,48.805,25.365,58.914,18.45,71.495
	c12.808,3.771,26.224,5.676,39.558,6.122C71.487,78.019,85.115,76.999,97.476,73.635z"/>
</svg>
