<?xml version="1.0" encoding="utf-8"?>
<!-- Generated by IcoMoon.io -->
<!DOCTYPE svg PUBLIC "-//W3C//DTD SVG 1.1//EN" "http://www.w3.org/Graphics/SVG/1.1/DTD/svg11.dtd">
<svg version="1.1" xmlns="http://www.w3.org/2000/svg" xmlns:xlink="http://www.w3.org/1999/xlink" width="20" height="20" viewBox="0 0 20 20">
<path fill="#5E5E5E" d="M10,0.3c-5.4,0-9.8,4.4-9.8,9.8s4.4,9.8,9.8,9.8c5.4,0,9.8-4.4,9.8-9.8S15.4,0.3,10,0.3z M14.243,12.828
	c0.391,0.391,0.391,1.023,0,1.414s-1.023,0.391-1.414,0L10,11.414l-2.829,2.828c-0.391,0.391-1.023,0.391-1.414,0
	s-0.391-1.023,0-1.414L8.586,10L5.757,7.171c-0.391-0.391-0.391-1.023,0-1.414s1.023-0.391,1.414,0L10,8.586l2.829-2.829
	c0.391-0.391,1.023-0.391,1.414,0s0.391,1.023,0,1.414L11.414,10L14.243,12.828z"/>
</svg>
