<?xml version="1.0" encoding="utf-8"?>
<!-- Generator: Adobe Illustrator 23.1.0, SVG Export Plug-In . SVG Version: 6.00 Build 0)  -->
<svg version="1.1" id="Vrstva_1" xmlns="http://www.w3.org/2000/svg" xmlns:xlink="http://www.w3.org/1999/xlink" x="0px" y="0px"
	 viewBox="0 0 32 32" style="enable-background:new 0 0 32 32;" xml:space="preserve">
<style type="text/css">
	.st0{fill:#22528E;}
</style>
<path class="st0" d="M31.2,12.6c0-0.1,0-0.1,0-0.2v-0.1v-0.1c0-0.1,0-0.1-0.1-0.1c0,0,0-0.1-0.1-0.1l0,0l-4.8-6.2l-0.1-0.1L26,5.6
	l0,0l0,0c-0.1,0-0.1-0.1-0.2-0.1c0,0-0.1,0-0.1-0.1l-9.5-1.7l0,0l0,0h-0.1H16h-0.1h-0.1L6.4,5.4c0,0-0.1,0-0.1,0.1
	c-0.1,0-0.1,0-0.2,0.1l0,0l0,0C6,5.6,6,5.7,6,5.7L5.9,5.8L1,12l0,0c0,0,0,0.1-0.1,0.1c0,0,0,0.1-0.1,0.1v0.1v0.1c0,0.1,0,0.1,0,0.2
	v0.1l0,0c0,0,0,0,0,0.1c0,0,0,0.1,0.1,0.1V13L1,13.1c0,0,0,0,0,0.1L15.2,29l0,0l0,0l0,0c0,0,0,0,0.1,0s0.1,0.1,0.2,0.1
	c0,0,0,0,0.1,0l0,0l0,0l0,0c0.1,0,0.2,0.1,0.3,0.1l0,0l0,0l0,0l0,0l0,0l0,0l0,0l0,0c0.1,0,0.2,0,0.3-0.1l0,0l0,0l0,0c0,0,0,0,0.1,0
	s0.1-0.1,0.2-0.1c0,0,0,0,0.1,0l0,0l0,0l0,0l14.3-15.8c0,0,0,0,0-0.1L31,13v-0.1c0,0,0-0.1,0.1-0.1C31.1,12.8,31.1,12.8,31.2,12.6
	L31.2,12.6C31.2,12.7,31.2,12.6,31.2,12.6z M16,10.1L16,10.1h-4l4-4l4,4H16z M16,12.1L16,12.1h5l-5,13.4l-5-13.4
	C11,12.1,16,12.1,16,12.1z M27.8,11.1L24,10.4l1.4-2.3L27.8,11.1z M22.3,9.5L19,6.3l4.8,0.9L22.3,9.5z M9.7,9.5L8.2,7.1L13,6.2
	L9.7,9.5z M6.5,8.1l1.4,2.3l-3.8,0.7L6.5,8.1z M8.9,12.2l4.3,11.6L3.6,13.2L8.9,12.2z M23.1,12.2l5.2,1l-9.6,10.6L23.1,12.2z"/>
</svg>
