<?xml version="1.0" encoding="UTF-8" standalone="no"?>
<!-- Generated by IcoMoon.io -->

<svg class="choices__svg svgicon svgicon--cross" viewBox="0 0 20 20">
  <path class="svg__path" d="m 14.243,12.8285 c 0.391,0.391 0.391,1.023 0,1.414 -0.391,0.391 -1.023,0.391 -1.414,0 l -2.8290002,-2.828 -2.829,2.828 c -0.391,0.391 -1.023,0.391 -1.414,0 -0.391,-0.391 -0.391,-1.023 0,-1.414 l 2.829,-2.828 -2.829,-2.829 c -0.391,-0.391 -0.391,-1.023 0,-1.414 0.391,-0.391 1.023,-0.391 1.414,0 l 2.829,2.8290001 L 12.829,5.7575 c 0.391,-0.391 1.023,-0.391 1.414,0 0.391,0.391 0.391,1.023 0,1.414 l -2.829,2.829 z" />
</svg>
