<?xml version="1.0" encoding="utf-8"?>
<!-- Generator: Adobe Illustrator 23.1.0, SVG Export Plug-In . SVG Version: 6.00 Build 0)  -->
<svg version="1.1" id="Vrstva_1" xmlns="http://www.w3.org/2000/svg" xmlns:xlink="http://www.w3.org/1999/xlink" x="0px" y="0px"
	 viewBox="0 0 20 20" style="enable-background:new 0 0 20 20;" xml:space="preserve">
<style type="text/css">
	.st0{fill:#22528E;}
</style>
<g>
	<g>
		<path class="st0" d="M10.1,10.6c2.6,0,4.7-2.1,4.7-4.7s-2.1-4.7-4.7-4.7S5.3,3.2,5.3,5.8S7.5,10.6,10.1,10.6z M10.1,2.4
			c1.9,0,3.5,1.6,3.5,3.5S12,9.3,10.1,9.3S6.6,7.7,6.6,5.8S8.2,2.4,10.1,2.4z"/>
		<path class="st0" d="M17.7,14.6c-0.7-1.1-2.2-2.1-4-2.7c-1.1-0.4-3.5-0.4-3.8-0.4l0,0c-0.2,0-0.4,0-0.6,0c-0.7,0-1.5,0-2.9,0.4
			c-1.7,0.4-3.2,1.5-4,2.7c-0.4,0.7-1,2.5-0.7,3.4c0.2,0.7,0.9,0.9,1.3,0.9c0,0,0,0,0,0l7,0l7.1,0c0,0,0,0,0,0
			c0.4,0,1.1-0.2,1.3-0.9C18.7,17,18.1,15.2,17.7,14.6z M17.2,17.6c0,0-0.1,0-0.1,0l-7.1,0l0,0h0h0l0,0l-7,0c0,0-0.1,0-0.1,0
			c-0.1-0.4,0.2-1.8,0.5-2.3c0.5-0.8,1.6-1.7,3.3-2.2c1.3-0.3,1.9-0.3,2.6-0.3c0.2,0,0.4,0,0.6,0c0.7,0,2.6,0,3.4,0.3
			c1.5,0.5,2.8,1.3,3.4,2.2C17,15.8,17.3,17.2,17.2,17.6z"/>
	</g>
</g>
</svg>
