<?xml version="1.0" encoding="utf-8"?>
<!-- Generated by IcoMoon.io -->
<!DOCTYPE svg PUBLIC "-//W3C//DTD SVG 1.1//EN" "http://www.w3.org/Graphics/SVG/1.1/DTD/svg11.dtd">
<svg class="svgicon" viewBox="0 0 20 20"><path class="svgicon__path" d="M19,4.533H8.099L7.161,3.638C7.068,3.549,6.944,3.5,6.816,3.5H2.083c-0.128,0-0.252,0.049-0.345,0.138 L0.655,4.671C0.556,4.765,0.5,4.896,0.5,5.033V16c0,0.276,0.224,0.5,0.5,0.5h18c0.276,0,0.5-0.224,0.5-0.5V5.033 C19.5,4.756,19.276,4.533,19,4.533z M18.5,15.5h-17V5.247L2.283,4.5h4.333l0.938,0.895c0.093,0.089,0.217,0.138,0.345,0.138H18.5 V15.5z"/></svg>
