<svg viewBox="0 0 18.00098 18.00098">
    <path class="svg__path" d="M12.81531,9A3.04113,3.04113,0,0,0,10,7.00055l-.00049-.00006a2.9997,2.9997,0,0,0,0,5.999L10,12.99945A2.97073,2.97073,0,0,0,12.81531,9ZM11,11.721a1.97627,1.97627,0,0,1-1,.2785l-.00049.00006A1.97646,1.97646,0,0,1,9,11.7215,1.99958,1.99958,0,0,1,8.27832,11a1.93583,1.93583,0,0,1-.00006-2A1.99991,1.99991,0,0,1,9,8.27844a1.97642,1.97642,0,0,1,.99951-.278L10,8.00055A1.97622,1.97622,0,0,1,11,8.279,2.00074,2.00074,0,0,1,11.72083,9a1.93622,1.93622,0,0,1-.00007,2A2.00038,2.00038,0,0,1,11,11.721Z" transform="translate(-0.99951 -0.99951)"/>
    <path class="svg__path" d="M16.78174,9A6.85594,6.85594,0,0,0,11,3.21826V.99951H9V3.21814A6.85607,6.85607,0,0,0,3.21722,9H.99951v2H3.2171A6.8562,6.8562,0,0,0,9,16.7829v2.21759h2V16.78278A6.85607,6.85607,0,0,0,16.78186,11h2.21863V9ZM11,15.772a5.84532,5.84532,0,0,1-1,.09186H9.99951a5.86341,5.86341,0,0,1,0-11.72662H10A5.86063,5.86063,0,0,1,11,15.772Z" transform="translate(-0.99951 -0.99951)"/>
</svg>