 <svg class="svgicon " viewBox="0 0 20 20">
    <polygon class="svgicon__path svgicon__path--transparent" points="18.8,7.4 13.1,7.4 12.2,7.4 11.9,6.6 10,1.1 8.1,6.6 7.8,7.4 6.9,7.4 1.2,7.4 5.6,10.9 6.3,11.4 
                         6,12.2 4.4,17.7 9.3,14.4 10,14 10.7,14.4 15.6,17.7 14,12.2 13.7,11.4 14.4,10.9 	"/>
    <path class="svgicon__path" d="M12.5,7.1L10,0L7.5,7.1H0l5.8,4.6l-2.1,7.1l6.3-4.2l6.3,4.2l-2.1-7.1L20,7.1H12.5z M13.2,12l1.3,4.4l-4-2.6L10,13.4
                      l-0.6,0.4l-4,2.6L6.7,12L7,11.3l-0.5-0.4L2.9,8.1h4.6h0.7l0.2-0.7L10,3l1.6,4.4l0.2,0.7h0.7h4.6l-3.6,2.8L13,11.3L13.2,12z"/>
</svg>