<svg class="svgicon" viewBox="0 0 20 20" >
    <g class="svgicon__path">
        <path d="M5.4,7.8c1.2,0,2.2,1,2.2,2.2s-1,2.2-2.2,2.2s-2.2-1-2.2-2.2S4.2,7.8,5.4,7.8 M5.4,6.9c-1.7,0-3.1,1.4-3.1,3.1
                      s1.4,3.1,3.1,3.1s3.1-1.4,3.1-3.1S7.1,6.9,5.4,6.9L5.4,6.9z"/>
        <path d="M14.6,5.5c2.5,0,4.5,2,4.5,4.5s-2,4.5-4.5,4.5H5.4c-2.5,0-4.5-2-4.5-4.5s2-4.5,4.5-4.5H14.6 M14.6,4.6H5.4
                      C2.4,4.6,0,7,0,10s2.4,5.4,5.4,5.4h9.1c3,0,5.4-2.4,5.4-5.4S17.6,4.6,14.6,4.6L14.6,4.6z"/>
    </g>
</svg>